<mxfile host="Electron" modified="2024-04-23T16:09:12.847Z" agent="Mozilla/5.0 (X11; Linux x86_64) AppleWebKit/537.36 (KHTML, like Gecko) draw.io/24.2.5 Chrome/120.0.6099.291 Electron/28.3.1 Safari/537.36" etag="2kPi95Sxc0Quki-0Rlcv" version="24.2.5" type="device">
  <diagram name="Page-1" id="vHOLH6xrTfBtIkdmDUUA">
    <mxGraphModel dx="851" dy="821" grid="1" gridSize="10" guides="1" tooltips="1" connect="1" arrows="1" fold="1" page="1" pageScale="1" pageWidth="827" pageHeight="1169" math="0" shadow="0">
      <root>
        <mxCell id="0" />
        <mxCell id="1" parent="0" />
        <mxCell id="JOSM6Lp8HKIc2TmCdSKC-15" style="edgeStyle=orthogonalEdgeStyle;rounded=0;orthogonalLoop=1;jettySize=auto;html=1;" edge="1" parent="1" source="JOSM6Lp8HKIc2TmCdSKC-1" target="JOSM6Lp8HKIc2TmCdSKC-2">
          <mxGeometry relative="1" as="geometry">
            <Array as="points">
              <mxPoint x="420" y="20" />
              <mxPoint x="90" y="20" />
            </Array>
          </mxGeometry>
        </mxCell>
        <mxCell id="JOSM6Lp8HKIc2TmCdSKC-16" style="edgeStyle=orthogonalEdgeStyle;rounded=0;orthogonalLoop=1;jettySize=auto;html=1;" edge="1" parent="1" source="JOSM6Lp8HKIc2TmCdSKC-1" target="JOSM6Lp8HKIc2TmCdSKC-3">
          <mxGeometry relative="1" as="geometry" />
        </mxCell>
        <mxCell id="JOSM6Lp8HKIc2TmCdSKC-17" style="edgeStyle=orthogonalEdgeStyle;rounded=0;orthogonalLoop=1;jettySize=auto;html=1;" edge="1" parent="1" source="JOSM6Lp8HKIc2TmCdSKC-1" target="JOSM6Lp8HKIc2TmCdSKC-4">
          <mxGeometry relative="1" as="geometry" />
        </mxCell>
        <mxCell id="JOSM6Lp8HKIc2TmCdSKC-1" value="homepage" style="rounded=1;whiteSpace=wrap;html=1;" vertex="1" parent="1">
          <mxGeometry x="369" y="40" width="101" height="40" as="geometry" />
        </mxCell>
        <mxCell id="JOSM6Lp8HKIc2TmCdSKC-18" style="edgeStyle=orthogonalEdgeStyle;rounded=0;orthogonalLoop=1;jettySize=auto;html=1;" edge="1" parent="1" source="JOSM6Lp8HKIc2TmCdSKC-2" target="JOSM6Lp8HKIc2TmCdSKC-9">
          <mxGeometry relative="1" as="geometry">
            <Array as="points">
              <mxPoint x="90" y="150" />
            </Array>
          </mxGeometry>
        </mxCell>
        <mxCell id="JOSM6Lp8HKIc2TmCdSKC-19" style="edgeStyle=orthogonalEdgeStyle;rounded=0;orthogonalLoop=1;jettySize=auto;html=1;" edge="1" parent="1" source="JOSM6Lp8HKIc2TmCdSKC-2" target="JOSM6Lp8HKIc2TmCdSKC-10">
          <mxGeometry relative="1" as="geometry">
            <Array as="points">
              <mxPoint x="90" y="210" />
            </Array>
          </mxGeometry>
        </mxCell>
        <mxCell id="JOSM6Lp8HKIc2TmCdSKC-20" style="edgeStyle=orthogonalEdgeStyle;rounded=0;orthogonalLoop=1;jettySize=auto;html=1;" edge="1" parent="1" source="JOSM6Lp8HKIc2TmCdSKC-2" target="JOSM6Lp8HKIc2TmCdSKC-11">
          <mxGeometry relative="1" as="geometry">
            <Array as="points">
              <mxPoint x="90" y="270" />
            </Array>
          </mxGeometry>
        </mxCell>
        <mxCell id="JOSM6Lp8HKIc2TmCdSKC-21" style="edgeStyle=orthogonalEdgeStyle;rounded=0;orthogonalLoop=1;jettySize=auto;html=1;" edge="1" parent="1" source="JOSM6Lp8HKIc2TmCdSKC-2" target="JOSM6Lp8HKIc2TmCdSKC-12">
          <mxGeometry relative="1" as="geometry">
            <Array as="points">
              <mxPoint x="90" y="330" />
            </Array>
          </mxGeometry>
        </mxCell>
        <mxCell id="JOSM6Lp8HKIc2TmCdSKC-2" value="page_one" style="rounded=1;whiteSpace=wrap;html=1;" vertex="1" parent="1">
          <mxGeometry x="40" y="40" width="101" height="40" as="geometry" />
        </mxCell>
        <mxCell id="JOSM6Lp8HKIc2TmCdSKC-52" style="edgeStyle=orthogonalEdgeStyle;rounded=0;orthogonalLoop=1;jettySize=auto;html=1;" edge="1" parent="1" source="JOSM6Lp8HKIc2TmCdSKC-3" target="JOSM6Lp8HKIc2TmCdSKC-48">
          <mxGeometry relative="1" as="geometry" />
        </mxCell>
        <mxCell id="JOSM6Lp8HKIc2TmCdSKC-53" style="edgeStyle=orthogonalEdgeStyle;rounded=0;orthogonalLoop=1;jettySize=auto;html=1;" edge="1" parent="1" source="JOSM6Lp8HKIc2TmCdSKC-3" target="JOSM6Lp8HKIc2TmCdSKC-49">
          <mxGeometry relative="1" as="geometry" />
        </mxCell>
        <mxCell id="JOSM6Lp8HKIc2TmCdSKC-3" value="page_two" style="rounded=1;whiteSpace=wrap;html=1;" vertex="1" parent="1">
          <mxGeometry x="369" y="210" width="101" height="40" as="geometry" />
        </mxCell>
        <mxCell id="JOSM6Lp8HKIc2TmCdSKC-4" value="page_three&lt;div&gt;(doesn&#39;t exist)&lt;/div&gt;" style="rounded=1;whiteSpace=wrap;html=1;" vertex="1" parent="1">
          <mxGeometry x="600" y="35" width="101" height="50" as="geometry" />
        </mxCell>
        <mxCell id="JOSM6Lp8HKIc2TmCdSKC-37" style="edgeStyle=orthogonalEdgeStyle;rounded=0;orthogonalLoop=1;jettySize=auto;html=1;" edge="1" parent="1" source="JOSM6Lp8HKIc2TmCdSKC-9" target="JOSM6Lp8HKIc2TmCdSKC-2">
          <mxGeometry relative="1" as="geometry">
            <Array as="points">
              <mxPoint x="120" y="140" />
            </Array>
          </mxGeometry>
        </mxCell>
        <mxCell id="JOSM6Lp8HKIc2TmCdSKC-44" style="edgeStyle=none;rounded=0;orthogonalLoop=1;jettySize=auto;html=1;" edge="1" parent="1" source="JOSM6Lp8HKIc2TmCdSKC-9" target="JOSM6Lp8HKIc2TmCdSKC-3">
          <mxGeometry relative="1" as="geometry" />
        </mxCell>
        <mxCell id="JOSM6Lp8HKIc2TmCdSKC-9" value="page_one/1" style="rounded=1;whiteSpace=wrap;html=1;" vertex="1" parent="1">
          <mxGeometry x="160" y="120" width="101" height="40" as="geometry" />
        </mxCell>
        <mxCell id="JOSM6Lp8HKIc2TmCdSKC-38" style="edgeStyle=orthogonalEdgeStyle;rounded=0;orthogonalLoop=1;jettySize=auto;html=1;" edge="1" parent="1" source="JOSM6Lp8HKIc2TmCdSKC-10" target="JOSM6Lp8HKIc2TmCdSKC-2">
          <mxGeometry relative="1" as="geometry">
            <Array as="points">
              <mxPoint x="120" y="200" />
            </Array>
          </mxGeometry>
        </mxCell>
        <mxCell id="JOSM6Lp8HKIc2TmCdSKC-45" style="edgeStyle=none;rounded=0;orthogonalLoop=1;jettySize=auto;html=1;" edge="1" parent="1" source="JOSM6Lp8HKIc2TmCdSKC-10" target="JOSM6Lp8HKIc2TmCdSKC-3">
          <mxGeometry relative="1" as="geometry" />
        </mxCell>
        <mxCell id="JOSM6Lp8HKIc2TmCdSKC-10" value="page_one/2" style="rounded=1;whiteSpace=wrap;html=1;" vertex="1" parent="1">
          <mxGeometry x="160" y="180" width="101" height="40" as="geometry" />
        </mxCell>
        <mxCell id="JOSM6Lp8HKIc2TmCdSKC-39" style="edgeStyle=orthogonalEdgeStyle;rounded=0;orthogonalLoop=1;jettySize=auto;html=1;" edge="1" parent="1" source="JOSM6Lp8HKIc2TmCdSKC-11" target="JOSM6Lp8HKIc2TmCdSKC-2">
          <mxGeometry relative="1" as="geometry">
            <Array as="points">
              <mxPoint x="120" y="260" />
            </Array>
          </mxGeometry>
        </mxCell>
        <mxCell id="JOSM6Lp8HKIc2TmCdSKC-46" style="edgeStyle=none;rounded=0;orthogonalLoop=1;jettySize=auto;html=1;" edge="1" parent="1" source="JOSM6Lp8HKIc2TmCdSKC-11" target="JOSM6Lp8HKIc2TmCdSKC-3">
          <mxGeometry relative="1" as="geometry" />
        </mxCell>
        <mxCell id="JOSM6Lp8HKIc2TmCdSKC-11" value="page_one/3" style="rounded=1;whiteSpace=wrap;html=1;" vertex="1" parent="1">
          <mxGeometry x="160" y="240" width="101" height="40" as="geometry" />
        </mxCell>
        <mxCell id="JOSM6Lp8HKIc2TmCdSKC-40" style="edgeStyle=orthogonalEdgeStyle;rounded=0;orthogonalLoop=1;jettySize=auto;html=1;" edge="1" parent="1" source="JOSM6Lp8HKIc2TmCdSKC-12" target="JOSM6Lp8HKIc2TmCdSKC-2">
          <mxGeometry relative="1" as="geometry">
            <Array as="points">
              <mxPoint x="120" y="320" />
            </Array>
          </mxGeometry>
        </mxCell>
        <mxCell id="JOSM6Lp8HKIc2TmCdSKC-47" style="edgeStyle=none;rounded=0;orthogonalLoop=1;jettySize=auto;html=1;" edge="1" parent="1" source="JOSM6Lp8HKIc2TmCdSKC-12" target="JOSM6Lp8HKIc2TmCdSKC-3">
          <mxGeometry relative="1" as="geometry" />
        </mxCell>
        <mxCell id="JOSM6Lp8HKIc2TmCdSKC-12" value="page_one/4" style="rounded=1;whiteSpace=wrap;html=1;" vertex="1" parent="1">
          <mxGeometry x="160" y="300" width="101" height="40" as="geometry" />
        </mxCell>
        <mxCell id="JOSM6Lp8HKIc2TmCdSKC-48" value="page_two/1" style="rounded=1;whiteSpace=wrap;html=1;" vertex="1" parent="1">
          <mxGeometry x="310" y="360" width="101" height="40" as="geometry" />
        </mxCell>
        <mxCell id="JOSM6Lp8HKIc2TmCdSKC-49" value="page_two/2" style="rounded=1;whiteSpace=wrap;html=1;" vertex="1" parent="1">
          <mxGeometry x="430" y="360" width="101" height="40" as="geometry" />
        </mxCell>
      </root>
    </mxGraphModel>
  </diagram>
</mxfile>
